<?xml version="1.0" encoding="utf-8" standalone="no"?>
<!DOCTYPE svg PUBLIC "-//W3C//DTD SVG 1.1//EN"
  "http://www.w3.org/Graphics/SVG/1.1/DTD/svg11.dtd">
<svg xmlns:xlink="http://www.w3.org/1999/xlink" width="4661pt" height="809pt" viewBox="0 0 4661 809" xmlns="http://www.w3.org/2000/svg" version="1.1">
 <metadata>
  <rdf:RDF xmlns:dc="http://purl.org/dc/elements/1.1/" xmlns:cc="http://creativecommons.org/ns#" xmlns:rdf="http://www.w3.org/1999/02/22-rdf-syntax-ns#">
   <cc:Work>
    <dc:type rdf:resource="http://purl.org/dc/dcmitype/StillImage"/>
    <dc:date>2026-09-17T10:01:10.186210</dc:date>
    <dc:format>image/svg+xml</dc:format>
    <dc:creator>
     <cc:Agent>
      <dc:title>Matplotlib v3.11.1, https://matplotlib.org/</dc:title>
     </cc:Agent>
    </dc:creator>
   </cc:Work>
  </rdf:RDF>
 </metadata>
 <defs>
  <style type="text/css">*{stroke-linejoin: round; stroke-linecap: butt}</style>
 </defs>
 <g id="figure_1">
  <g id="patch_1">
   <path d="M 0 809 
L 4661 809 
L 4661 0 
L 0 0 
z
" style="fill: #ffffff"/>
  </g>
  <g id="axes_1">
   <g id="patch_2">
    <path d="M 489.405 699.785 
L 4288.12 699.785 
L 4288.12 40.45 
L 489.405 40.45 
z
" style="fill: #ffffff"/>
   </g>
   <g id="QuadMesh_1">
    <path d="M 489.405 699.785 
L 1439.08375 699.785 
L 1439.08375 626.525556 
L 489.405 626.525556 
L 489.405 699.785 
" clip-path="url(#p30034678d7)" style="fill: #2a606a"/>
    <path d="M 1439.08375 699.785 
L 2388.7625 699.785 
L 2388.7625 626.525556 
L 1439.08375 626.525556 
L 1439.08375 699.785 
" clip-path="url(#p30034678d7)" style="fill: #316971"/>
    <path d="M 2388.7625 699.785 
L 3338.44125 699.785 
L 3338.44125 626.525556 
L 2388.7625 626.525556 
L 2388.7625 699.785 
" clip-path="url(#p30034678d7)" style="fill: #215461"/>
    <path d="M 3338.44125 699.785 
L 4288.12 699.785 
L 4288.12 626.525556 
L 3338.44125 626.525556 
L 3338.44125 699.785 
" clip-path="url(#p30034678d7)" style="fill: #336c74"/>
    <path d="M 489.405 626.525556 
L 1439.08375 626.525556 
L 1439.08375 553.266111 
L 489.405 553.266111 
L 489.405 626.525556 
" clip-path="url(#p30034678d7)" style="fill: #7fb6ad"/>
    <path d="M 1439.08375 626.525556 
L 2388.7625 626.525556 
L 2388.7625 553.266111 
L 1439.08375 553.266111 
L 1439.08375 626.525556 
" clip-path="url(#p30034678d7)" style="fill: #9fc4ba"/>
    <path d="M 2388.7625 626.525556 
L 3338.44125 626.525556 
L 3338.44125 553.266111 
L 2388.7625 553.266111 
L 2388.7625 626.525556 
" clip-path="url(#p30034678d7)" style="fill: #7cb5ac"/>
    <path d="M 3338.44125 626.525556 
L 4288.12 626.525556 
L 4288.12 553.266111 
L 3338.44125 553.266111 
L 3338.44125 626.525556 
" clip-path="url(#p30034678d7)" style="fill: #9bc2b8"/>
    <path d="M 489.405 553.266111 
L 1439.08375 553.266111 
L 1439.08375 480.006667 
L 489.405 480.006667 
L 489.405 553.266111 
" clip-path="url(#p30034678d7)" style="fill: #76b2a9"/>
    <path d="M 1439.08375 553.266111 
L 2388.7625 553.266111 
L 2388.7625 480.006667 
L 1439.08375 480.006667 
L 1439.08375 553.266111 
" clip-path="url(#p30034678d7)" style="fill: #87bab0"/>
    <path d="M 2388.7625 553.266111 
L 3338.44125 553.266111 
L 3338.44125 480.006667 
L 2388.7625 480.006667 
L 2388.7625 553.266111 
" clip-path="url(#p30034678d7)" style="fill: #8cbcb2"/>
    <path d="M 3338.44125 553.266111 
L 4288.12 553.266111 
L 4288.12 480.006667 
L 3338.44125 480.006667 
L 3338.44125 553.266111 
" clip-path="url(#p30034678d7)" style="fill: #8cbcb2"/>
    <path d="M 489.405 480.006667 
L 1439.08375 480.006667 
L 1439.08375 406.747222 
L 489.405 406.747222 
L 489.405 480.006667 
" clip-path="url(#p30034678d7)" style="fill: #c6d5ca"/>
    <path d="M 1439.08375 480.006667 
L 2388.7625 480.006667 
L 2388.7625 406.747222 
L 1439.08375 406.747222 
L 1439.08375 480.006667 
" clip-path="url(#p30034678d7)" style="fill: #bbd0c6"/>
    <path d="M 2388.7625 480.006667 
L 3338.44125 480.006667 
L 3338.44125 406.747222 
L 2388.7625 406.747222 
L 2388.7625 480.006667 
" clip-path="url(#p30034678d7)" style="fill: #82b8ae"/>
    <path d="M 3338.44125 480.006667 
L 4288.12 480.006667 
L 4288.12 406.747222 
L 3338.44125 406.747222 
L 3338.44125 480.006667 
" clip-path="url(#p30034678d7)" style="fill: #c0d2c8"/>
    <path d="M 489.405 406.747222 
L 1439.08375 406.747222 
L 1439.08375 333.487778 
L 489.405 333.487778 
L 489.405 406.747222 
" clip-path="url(#p30034678d7)" style="fill: #5ba29c"/>
    <path d="M 1439.08375 406.747222 
L 2388.7625 406.747222 
L 2388.7625 333.487778 
L 1439.08375 333.487778 
L 1439.08375 406.747222 
" clip-path="url(#p30034678d7)" style="fill: #94bfb6"/>
    <path d="M 2388.7625 406.747222 
L 3338.44125 406.747222 
L 3338.44125 333.487778 
L 2388.7625 333.487778 
L 2388.7625 406.747222 
" clip-path="url(#p30034678d7)" style="fill: #64aaa2"/>
    <path d="M 3338.44125 406.747222 
L 4288.12 406.747222 
L 4288.12 333.487778 
L 3338.44125 333.487778 
L 3338.44125 406.747222 
" clip-path="url(#p30034678d7)" style="fill: #8cbcb2"/>
    <path d="M 489.405 333.487778 
L 1439.08375 333.487778 
L 1439.08375 260.228333 
L 489.405 260.228333 
L 489.405 333.487778 
" clip-path="url(#p30034678d7)" style="fill: #5ba29c"/>
    <path d="M 1439.08375 333.487778 
L 2388.7625 333.487778 
L 2388.7625 260.228333 
L 1439.08375 260.228333 
L 1439.08375 333.487778 
" clip-path="url(#p30034678d7)" style="fill: #69aca4"/>
    <path d="M 2388.7625 333.487778 
L 3338.44125 333.487778 
L 3338.44125 260.228333 
L 2388.7625 260.228333 
L 2388.7625 333.487778 
" clip-path="url(#p30034678d7)" style="fill: #4e918f"/>
    <path d="M 3338.44125 333.487778 
L 4288.12 333.487778 
L 4288.12 260.228333 
L 3338.44125 260.228333 
L 3338.44125 333.487778 
" clip-path="url(#p30034678d7)" style="fill: #b4cdc3"/>
    <path d="M 489.405 260.228333 
L 1439.08375 260.228333 
L 1439.08375 186.968889 
L 489.405 186.968889 
L 489.405 260.228333 
" clip-path="url(#p30034678d7)" style="fill: #e8e1d5"/>
    <path d="M 1439.08375 260.228333 
L 2388.7625 260.228333 
L 2388.7625 186.968889 
L 1439.08375 186.968889 
L 1439.08375 260.228333 
" clip-path="url(#p30034678d7)" style="fill: #e0907e"/>
    <path d="M 2388.7625 260.228333 
L 3338.44125 260.228333 
L 3338.44125 186.968889 
L 2388.7625 186.968889 
L 2388.7625 260.228333 
" clip-path="url(#p30034678d7)" style="fill: #d1dacf"/>
    <path d="M 3338.44125 260.228333 
L 4288.12 260.228333 
L 4288.12 186.968889 
L 3338.44125 186.968889 
L 3338.44125 260.228333 
" clip-path="url(#p30034678d7)" style="fill: #d8ddd1"/>
    <path d="M 489.405 186.968889 
L 1439.08375 186.968889 
L 1439.08375 113.709444 
L 489.405 113.709444 
L 489.405 186.968889 
" clip-path="url(#p30034678d7)" style="fill: #e3e2d6"/>
    <path d="M 1439.08375 186.968889 
L 2388.7625 186.968889 
L 2388.7625 113.709444 
L 1439.08375 113.709444 
L 1439.08375 186.968889 
" clip-path="url(#p30034678d7)" style="fill: #e6e3d7"/>
    <path d="M 2388.7625 186.968889 
L 3338.44125 186.968889 
L 3338.44125 113.709444 
L 2388.7625 113.709444 
L 2388.7625 186.968889 
" clip-path="url(#p30034678d7)" style="fill: #8fbdb4"/>
    <path d="M 3338.44125 186.968889 
L 4288.12 186.968889 
L 4288.12 113.709444 
L 3338.44125 113.709444 
L 3338.44125 186.968889 
" clip-path="url(#p30034678d7)" style="fill: #e4b6a6"/>
    <path d="M 489.405 113.709444 
L 1439.08375 113.709444 
L 1439.08375 40.45 
L 489.405 40.45 
L 489.405 113.709444 
" clip-path="url(#p30034678d7)" style="fill: #e7d5c8"/>
    <path d="M 1439.08375 113.709444 
L 2388.7625 113.709444 
L 2388.7625 40.45 
L 1439.08375 40.45 
L 1439.08375 113.709444 
" clip-path="url(#p30034678d7)" style="fill: #b6cec4"/>
    <path d="M 2388.7625 113.709444 
L 3338.44125 113.709444 
L 3338.44125 40.45 
L 2388.7625 40.45 
L 2388.7625 113.709444 
" clip-path="url(#p30034678d7)" style="fill: #e3b1a1"/>
    <path d="M 3338.44125 113.709444 
L 4288.12 113.709444 
L 4288.12 40.45 
L 3338.44125 40.45 
L 3338.44125 113.709444 
" clip-path="url(#p30034678d7)" style="fill: #97c1b7"/>
   </g>
   <g id="matplotlib.axis_1">
    <g id="xtick_1">
     <g id="line2d_1">
      <defs>
       <path id="m0c4f94fb50" d="M 0 0 
L 0 3.5 
" style="stroke: #000000; stroke-width: 0.8"/>
      </defs>
      <g>
       <use xlink:href="#m0c4f94fb50" x="964.244375" y="699.785" style="stroke: #000000; stroke-width: 0.8"/>
      </g>
     </g>
     <g id="text_1">
      <text style="font-size: 8.5px; font-family: 'DejaVu Sans', 'Bitstream Vera Sans', 'Computer Modern Sans Serif', 'Lucida Grande', 'Verdana', 'Geneva', 'Lucid', 'Arial', 'Helvetica', 'Avant Garde', sans-serif; text-anchor: middle" x="964.244375" y="713.243008" transform="rotate(-0 964.244375 713.243008)">A</text>
     </g>
    </g>
    <g id="xtick_2">
     <g id="line2d_2">
      <g>
       <use xlink:href="#m0c4f94fb50" x="1913.923125" y="699.785" style="stroke: #000000; stroke-width: 0.8"/>
      </g>
     </g>
     <g id="text_2">
      <text style="font-size: 8.5px; font-family: 'DejaVu Sans', 'Bitstream Vera Sans', 'Computer Modern Sans Serif', 'Lucida Grande', 'Verdana', 'Geneva', 'Lucid', 'Arial', 'Helvetica', 'Avant Garde', sans-serif; text-anchor: middle" x="1913.923125" y="713.243008" transform="rotate(-0 1913.923125 713.243008)">B</text>
     </g>
    </g>
    <g id="xtick_3">
     <g id="line2d_3">
      <g>
       <use xlink:href="#m0c4f94fb50" x="2863.601875" y="699.785" style="stroke: #000000; stroke-width: 0.8"/>
      </g>
     </g>
     <g id="text_3">
      <text style="font-size: 8.5px; font-family: 'DejaVu Sans', 'Bitstream Vera Sans', 'Computer Modern Sans Serif', 'Lucida Grande', 'Verdana', 'Geneva', 'Lucid', 'Arial', 'Helvetica', 'Avant Garde', sans-serif; text-anchor: middle" x="2863.601875" y="713.243008" transform="rotate(-0 2863.601875 713.243008)">C</text>
     </g>
    </g>
    <g id="xtick_4">
     <g id="line2d_4">
      <g>
       <use xlink:href="#m0c4f94fb50" x="3813.280625" y="699.785" style="stroke: #000000; stroke-width: 0.8"/>
      </g>
     </g>
     <g id="text_4">
      <text style="font-size: 8.5px; font-family: 'DejaVu Sans', 'Bitstream Vera Sans', 'Computer Modern Sans Serif', 'Lucida Grande', 'Verdana', 'Geneva', 'Lucid', 'Arial', 'Helvetica', 'Avant Garde', sans-serif; text-anchor: middle" x="3813.280625" y="713.243008" transform="rotate(-0 3813.280625 713.243008)">D</text>
     </g>
    </g>
   </g>
   <g id="matplotlib.axis_2">
    <g id="ytick_1">
     <g id="line2d_5">
      <defs>
       <path id="md3d7b0bd8c" d="M 0 0 
L -3.5 0 
" style="stroke: #000000; stroke-width: 0.8"/>
      </defs>
      <g>
       <use xlink:href="#md3d7b0bd8c" x="489.405" y="663.155278" style="stroke: #000000; stroke-width: 0.8"/>
      </g>
     </g>
     <g id="text_5">
      <text style="font-size: 8.5px; font-family: 'DejaVu Sans', 'Bitstream Vera Sans', 'Computer Modern Sans Serif', 'Lucida Grande', 'Verdana', 'Geneva', 'Lucid', 'Arial', 'Helvetica', 'Avant Garde', sans-serif; text-anchor: end" x="482.405" y="666.384282" transform="rotate(-0 482.405 666.384282)">CYP1B1</text>
     </g>
    </g>
    <g id="ytick_2">
     <g id="line2d_6">
      <g>
       <use xlink:href="#md3d7b0bd8c" x="489.405" y="589.895833" style="stroke: #000000; stroke-width: 0.8"/>
      </g>
     </g>
     <g id="text_6">
      <text style="font-size: 8.5px; font-family: 'DejaVu Sans', 'Bitstream Vera Sans', 'Computer Modern Sans Serif', 'Lucida Grande', 'Verdana', 'Geneva', 'Lucid', 'Arial', 'Helvetica', 'Avant Garde', sans-serif; text-anchor: end" x="482.405" y="593.124837" transform="rotate(-0 482.405 593.124837)">GC</text>
     </g>
    </g>
    <g id="ytick_3">
     <g id="line2d_7">
      <g>
       <use xlink:href="#md3d7b0bd8c" x="489.405" y="516.636389" style="stroke: #000000; stroke-width: 0.8"/>
      </g>
     </g>
     <g id="text_7">
      <text style="font-size: 8.5px; font-family: 'DejaVu Sans', 'Bitstream Vera Sans', 'Computer Modern Sans Serif', 'Lucida Grande', 'Verdana', 'Geneva', 'Lucid', 'Arial', 'Helvetica', 'Avant Garde', sans-serif; text-anchor: end" x="482.405" y="519.865393" transform="rotate(-0 482.405 519.865393)">KIF11</text>
     </g>
    </g>
    <g id="ytick_4">
     <g id="line2d_8">
      <g>
       <use xlink:href="#md3d7b0bd8c" x="489.405" y="443.376944" style="stroke: #000000; stroke-width: 0.8"/>
      </g>
     </g>
     <g id="text_8">
      <text style="font-size: 8.5px; font-family: 'DejaVu Sans', 'Bitstream Vera Sans', 'Computer Modern Sans Serif', 'Lucida Grande', 'Verdana', 'Geneva', 'Lucid', 'Arial', 'Helvetica', 'Avant Garde', sans-serif; text-anchor: end" x="482.405" y="446.605948" transform="rotate(-0 482.405 446.605948)">MMP9</text>
     </g>
    </g>
    <g id="ytick_5">
     <g id="line2d_9">
      <g>
       <use xlink:href="#md3d7b0bd8c" x="489.405" y="370.1175" style="stroke: #000000; stroke-width: 0.8"/>
      </g>
     </g>
     <g id="text_9">
      <text style="font-size: 8.5px; font-family: 'DejaVu Sans', 'Bitstream Vera Sans', 'Computer Modern Sans Serif', 'Lucida Grande', 'Verdana', 'Geneva', 'Lucid', 'Arial', 'Helvetica', 'Avant Garde', sans-serif; text-anchor: end" x="482.405" y="373.346504" transform="rotate(-0 482.405 373.346504)">SERPINA1</text>
     </g>
    </g>
    <g id="ytick_6">
     <g id="line2d_10">
      <g>
       <use xlink:href="#md3d7b0bd8c" x="489.405" y="296.858056" style="stroke: #000000; stroke-width: 0.8"/>
      </g>
     </g>
     <g id="text_10">
      <text style="font-size: 8.5px; font-family: 'DejaVu Sans', 'Bitstream Vera Sans', 'Computer Modern Sans Serif', 'Lucida Grande', 'Verdana', 'Geneva', 'Lucid', 'Arial', 'Helvetica', 'Avant Garde', sans-serif; text-anchor: end" x="482.405" y="300.087059" transform="rotate(-0 482.405 300.087059)">HSD11B1</text>
     </g>
    </g>
    <g id="ytick_7">
     <g id="line2d_11">
      <g>
       <use xlink:href="#md3d7b0bd8c" x="489.405" y="223.598611" style="stroke: #000000; stroke-width: 0.8"/>
      </g>
     </g>
     <g id="text_11">
      <text style="font-size: 8.5px; font-family: 'DejaVu Sans', 'Bitstream Vera Sans', 'Computer Modern Sans Serif', 'Lucida Grande', 'Verdana', 'Geneva', 'Lucid', 'Arial', 'Helvetica', 'Avant Garde', sans-serif; text-anchor: end" x="482.405" y="226.827615" transform="rotate(-0 482.405 226.827615)">ALB</text>
     </g>
    </g>
    <g id="ytick_8">
     <g id="line2d_12">
      <g>
       <use xlink:href="#md3d7b0bd8c" x="489.405" y="150.339167" style="stroke: #000000; stroke-width: 0.8"/>
      </g>
     </g>
     <g id="text_12">
      <text style="font-size: 8.5px; font-family: 'DejaVu Sans', 'Bitstream Vera Sans', 'Computer Modern Sans Serif', 'Lucida Grande', 'Verdana', 'Geneva', 'Lucid', 'Arial', 'Helvetica', 'Avant Garde', sans-serif; text-anchor: end" x="482.405" y="153.568171" transform="rotate(-0 482.405 153.568171)">BACE1</text>
     </g>
    </g>
    <g id="ytick_9">
     <g id="line2d_13">
      <g>
       <use xlink:href="#md3d7b0bd8c" x="489.405" y="77.079722" style="stroke: #000000; stroke-width: 0.8"/>
      </g>
     </g>
     <g id="text_13">
      <text style="font-size: 8.5px; font-family: 'DejaVu Sans', 'Bitstream Vera Sans', 'Computer Modern Sans Serif', 'Lucida Grande', 'Verdana', 'Geneva', 'Lucid', 'Arial', 'Helvetica', 'Avant Garde', sans-serif; text-anchor: end" x="482.405" y="80.308726" transform="rotate(-0 482.405 80.308726)">GSTA1</text>
     </g>
    </g>
   </g>
   <g id="patch_3">
    <path d="M 489.405 699.785 
L 489.405 40.45 
" style="fill: none; stroke: #000000; stroke-width: 0.8; stroke-linejoin: miter; stroke-linecap: square"/>
   </g>
   <g id="patch_4">
    <path d="M 4288.12 699.785 
L 4288.12 40.45 
" style="fill: none; stroke: #000000; stroke-width: 0.8; stroke-linejoin: miter; stroke-linecap: square"/>
   </g>
   <g id="patch_5">
    <path d="M 489.405 699.785 
L 4288.12 699.785 
" style="fill: none; stroke: #000000; stroke-width: 0.8; stroke-linejoin: miter; stroke-linecap: square"/>
   </g>
   <g id="patch_6">
    <path d="M 489.405 40.45 
L 4288.12 40.45 
" style="fill: none; stroke: #000000; stroke-width: 0.8; stroke-linejoin: miter; stroke-linecap: square"/>
   </g>
  </g>
 </g>
 <defs>
  <clipPath id="p30034678d7">
   <rect x="489.405" y="40.45" width="3798.715" height="659.335"/>
  </clipPath>
 </defs>
</svg>
